<svg xmlns="http://www.w3.org/2000/svg" viewBox="0 0 478.165 478.165" width="512" height="512"><path d="M239.082 0C106.989.02 0 106.989 0 239.102c0 132.073 106.989 239.062 239.082 239.062s239.082-106.989 239.082-239.062C478.165 106.989 371.175.02 239.082 0zM385.64 123.964c23.311 29.606 37.835 66.306 39.708 106.292-27.036-5.658-52.638-8.467-76.168-8.467h-.319c-19.127 0-37.018 1.813-54.092 4.702-3.945-10.041-8.109-19.704-12.313-28.989 37.536-16.517 73.836-40.106 103.184-73.538zM239.082 52.558c43.951 0 84.416 15.421 116.274 41.042-24.347 29.208-56.603 50.466-91.549 65.389C239.321 111.591 215.652 77.741 199.434 57c12.811-2.808 26.06-4.442 39.648-4.442zm-82.383 19.426c12.871 15.361 38.891 48.972 66.545 101.51-56.304 16.776-113.006 20.74-147.335 20.74-.976 0-1.893 0-2.849-.04h-.04c-5.798 0-10.719-.139-14.903-.359 13.369-53.494 50.028-97.863 98.582-121.851zM52.538 239.102c0-.777.02-1.853.179-2.769 5.22.339 12.133.418 20.322.418h.04c37.516-.219 102.945-3.307 169.27-24.307a963.376 963.376 0 0 1 10.739 24.725c-44.33 14.863-79.176 38.353-105.037 61.783-24.825 22.773-41.6 45.187-51.403 60.129-27.493-32.574-44.09-74.234-44.11-119.979zm186.544 186.664c-41.541 0-79.794-13.867-110.735-36.859 6.575-10.779 20.621-31.738 43.234-53.236 23.131-22.314 55.108-45.187 96.868-58.794 14.146 39.747 27.076 85.372 36.898 136.476-20.6 7.89-42.954 12.413-66.265 12.413zm105.555-33.153c-9.424-46.243-21.438-88.201-34.488-125.478 12.153-1.793 25.024-2.749 38.273-2.749h.757c22.075 0 46.701 2.769 73.02 8.806-9.045 49.41-37.794 91.907-77.562 119.421z" data-original="#000000" class="active-path" data-old_color="#3d3d3d" fill="#3d3d3d"/></svg>